# xmcd
#
# Track frame offsets:
#	150
#	22132
#	48509
#	67356
#	90996
#	129578
#	150452
#	174628
#
# Disc length: 2377 seconds
#
# Revision: 25
# Processed by: cddbd v1.5.2PL0 Copyright (c) Steve Scherf et al.
# Submitted via: Jack! The Knife 20 Magnifico
#
DISCID=6a094708
DTITLE=Yngwie Malmsteen - Rising Force
DYEAR=1984
DGENRE=Metal
TTITLE0=Black Star
TTITLE1=Far Beyond The Sun
TTITLE2=Now Your Ships Are Burned
TTITLE3=Evil Eye
TTITLE4=Icarus' Dream Suite Op.4
TTITLE5=As Above, So Below
TTITLE6=Little Savage
TTITLE7=Farewell
EXTD=Yngwie Malmsteen
EXTT0=Yngwie Malmsteen
EXTT1=Yngwie Malmsteen
EXTT2=Yngwie Malmsteen
EXTT3=Yngwie Malmsteen
EXTT4=Yngwie Malmsteen
EXTT5=Yngwie Malmsteen
EXTT6=Yngwie Malmsteen
EXTT7=Yngwie Malmsteen
PLAYORDER=
